# xmcd
#
# Track frame offsets:
#	150
#	20304
#	28499
#	50934
#	71958
#	93207
#	121052
#	143105
#	167428
#	183821
#	205597
#	227086
#	245050
#	268175
#	291930
#
# Disc length: 4178 seconds
#
# Revision: 1
# Processed by: cddbd v1.5.2PL0 Copyright (c) Steve Scherf et al.
# Submitted via: audiograbber 1.83.01
#
DISCID=dc10500f
DTITLE=Peter Heyd - Hinter den Kurven der Wege
DYEAR=2001
DGENRE=
TTITLE0=Spannung
TTITLE1=Gegen einen Schwarm von Vögeln
TTITLE2=Wieder sehen
TTITLE3=Hinter den Kurven der Wege
TTITLE4=Taufen
TTITLE5=Knoten
TTITLE6=Gott sei Dank geht´s nicht
TTITLE7=Wir Hochspringer
TTITLE8=Reihe 2
TTITLE9=Keine Ahnung
TTITLE10=Nachtzug
TTITLE11=Königin von Milchland
TTITLE12=Afrika
TTITLE13=Kleiner Schritt
TTITLE14=Ernte
EXTD=Text, MUsik, Ausführung und Aufnahme: Peter Heyd
EXTT0=
EXTT1=
EXTT2=
EXTT3=
EXTT4=
EXTT5=
EXTT6=
EXTT7=
EXTT8=
EXTT9=
EXTT10=
EXTT11=
EXTT12=
EXTT13=
EXTT14=
PLAYORDER=
